<svg width="160" height="60" viewBox="0 0 160 60" fill="none" xmlns="http://www.w3.org/2000/svg">
<rect x="0.5" y="0.5" width="159" height="59" rx="5.5" stroke="#1B1B1B"/>
<g opacity="0.3" clip-path="url(#clip0_1_3776)">
<path fill-rule="evenodd" clip-rule="evenodd" d="M39.2306 34.7486L42.1647 32.5009C43.723 34.5351 45.3778 35.4725 47.2217 35.4724C49.0554 35.4722 50.6646 34.5455 52.1528 32.5271L55.1276 34.7206C52.9819 37.6307 50.3122 39.1682 47.222 39.1684C44.142 39.1686 41.4473 37.6423 39.2306 34.7486Z" fill="white"/>
<path fill-rule="evenodd" clip-rule="evenodd" d="M47.2117 24.98L41.9895 29.4805L39.5766 26.6807L47.2217 20.0921L54.8083 26.6848L52.3839 29.4747L47.2117 24.98Z" fill="white"/>
<path d="M75.158 23.8894L72.2012 23.8896L72.202 36.2099L75.1589 36.2097L75.158 23.8894Z" fill="white"/>
<path fill-rule="evenodd" clip-rule="evenodd" d="M66.2257 36.2646C64.4826 36.2647 63.03 35.7 61.8517 34.5703C60.6735 33.4244 60.0923 31.9558 60.0922 30.1643C60.0921 28.3566 60.6892 26.8718 61.8673 25.7097C63.0615 24.5314 64.514 23.9503 66.241 23.9501C68.3713 23.95 70.2598 24.8698 71.3573 26.3062L69.4368 28.3238C68.5168 27.3393 67.5162 26.839 66.4348 26.8391C65.5149 26.8392 64.7564 27.1459 64.1269 27.7754C63.5137 28.4049 63.2071 29.1957 63.2072 30.1479C63.2072 31.0679 63.5139 31.8426 64.1273 32.472C64.7568 33.0852 65.5153 33.3918 66.4192 33.3918C67.5973 33.3917 68.6302 32.8751 69.4855 31.8583L71.4871 33.7788C70.9384 34.5051 70.1958 35.1023 69.2759 35.5704C68.3562 36.0385 67.3393 36.2645 66.2257 36.2646Z" fill="white"/>
<path fill-rule="evenodd" clip-rule="evenodd" d="M79.592 24.8747C79.592 25.7593 78.8753 26.4764 77.9906 26.4765C77.106 26.4765 76.3888 25.7595 76.3888 24.8749C76.3887 23.9904 77.1058 23.2733 77.9904 23.2732C78.875 23.2731 79.5919 23.9902 79.592 24.8747ZM79.4689 27.2156L76.5121 27.2158L76.5127 36.2096L79.4695 36.2094L79.4689 27.2156Z" fill="white"/>
<path fill-rule="evenodd" clip-rule="evenodd" d="M85.1847 36.2795C83.7806 36.2796 82.6507 35.8439 81.7632 34.9724C80.8915 34.1009 80.4555 32.9873 80.4554 31.6155C80.4553 30.2436 80.8912 29.13 81.7786 28.2584C82.6664 27.3868 83.8122 26.9509 85.2325 26.9509C87.0887 26.9507 88.7186 27.8544 89.4773 29.549L87.2017 30.7435C86.7498 29.985 86.1205 29.5977 85.2973 29.5977C84.7002 29.5978 84.2158 29.7915 83.8286 30.1788C83.4573 30.5662 83.2638 31.0504 83.2638 31.6153C83.2639 32.7935 84.1193 33.665 85.2654 33.6649C86.0883 33.6648 86.8468 33.2129 87.1697 32.5188L89.4454 33.8744C88.6707 35.3593 87.0731 36.2794 85.1847 36.2795Z" fill="white"/>
<path fill-rule="evenodd" clip-rule="evenodd" d="M93.1443 23.8882L90.1875 23.8884L90.1883 36.2087L93.1451 36.2085L93.1449 33.0721L93.4913 32.7489L96.1944 36.2083L99.6341 36.208L95.481 30.8932L99.4257 27.2142L95.8126 27.2145L93.1447 29.7029L93.1443 23.8882Z" fill="white"/>
<path fill-rule="evenodd" clip-rule="evenodd" d="M100.168 31.5524L100.168 23.8878L103.248 23.8875L103.249 31.3806C103.249 32.7202 104.029 33.3657 105.158 33.3656C106.271 33.3655 107.068 32.6876 107.068 31.3803L107.067 23.8873L110.147 23.8871L110.148 31.5518C110.148 35.0702 107.678 36.3938 105.159 36.3939C102.655 36.3941 100.169 35.0708 100.168 31.5524Z" fill="white"/>
<path fill-rule="evenodd" clip-rule="evenodd" d="M116.8 36.4533C119.182 36.4531 121.112 34.357 121.112 31.7713C121.112 29.1857 119.181 27.0897 116.8 27.0899C115.829 27.09 114.933 27.4383 114.213 28.026L114.213 27.2133L111.379 27.2135L111.38 39.9033L114.213 39.9032L114.213 35.5175C114.934 36.1052 115.83 36.4534 116.8 36.4533ZM114.213 31.7766L114.213 31.7669C114.215 30.6124 115.124 29.6773 116.245 29.6772C117.368 29.6771 118.279 30.6148 118.279 31.7715C118.279 32.9282 117.369 33.866 116.246 33.8661C115.125 33.8661 114.216 32.9311 114.213 31.7766Z" fill="white"/>
</g>
<defs>
<clipPath id="clip0_1_3776">
<rect width="82.3188" height="20" fill="white" transform="translate(39 20)"/>
</clipPath>
</defs>
</svg>
