<svg width="160" height="60" viewBox="0 0 160 60" fill="none" xmlns="http://www.w3.org/2000/svg">
<rect x="0.5" y="0.5" width="159" height="59" rx="5.5" stroke="#1B1B1B"/>
<g opacity="0.3" clip-path="url(#clip0_1_3788)">
<path d="M59.6152 23.6764L64.1922 23.6761C68.1118 23.6758 70.5901 26.2044 70.5904 30.1492C70.5906 34.094 68.1253 36.6229 64.1931 36.6232L59.6161 36.6235L59.6152 23.6764ZM64.0918 34.2589C66.5573 34.2587 67.9101 32.6781 67.9099 30.162C67.9098 27.6333 66.5568 26.0529 64.0913 26.0531L62.2959 26.0532L62.2964 34.259L64.0918 34.2589Z" fill="white"/>
<path d="M77.5315 29.7821C77.1775 29.5672 76.7097 29.4661 76.2166 29.4661C75.3315 29.4661 74.6109 29.934 74.4213 30.7938L74.4217 36.6352L71.8171 36.6353L71.8164 27.2032L74.4337 27.203L74.4337 28.126C74.8383 27.4558 75.6095 26.988 76.5451 26.9879C76.9877 26.9879 77.3923 27.0764 77.5314 27.1522L77.5315 29.7821Z" fill="white"/>
<rect x="9.5" y="2.5" width="159" height="59" rx="5.5" stroke="#1B1B1B"/>
<path d="M82.7552 36.8496C80.0115 36.8497 78.1275 34.8269 78.1273 31.9315C78.1271 29.0234 80.0109 26.9877 82.7545 26.9875C85.4982 26.9873 87.3696 29.0102 87.3698 31.9309C87.37 34.8263 85.4989 36.8494 82.7552 36.8496ZM82.7547 29.2128C81.4397 29.2129 80.7318 30.3508 80.7319 31.9313C80.732 33.4865 81.4528 34.637 82.7551 34.6369C84.0574 34.6368 84.778 33.4988 84.7779 31.931C84.7778 30.3506 84.057 29.2127 82.7547 29.2128Z" fill="white"/>
<path d="M91.1123 40.1237L88.495 40.1238L88.4942 27.202L91.1114 27.2018L91.1114 27.9857C91.5287 27.48 92.4643 26.9994 93.4757 26.9994C96.2194 26.9992 97.7748 29.2749 97.7749 31.9427C97.7751 34.5979 96.2201 36.8612 93.4764 36.8614C92.4649 36.8615 91.5293 36.3811 91.112 35.8754L91.1123 40.1237ZM91.1118 33.4731C91.428 34.1305 92.1234 34.573 92.882 34.573C94.2981 34.5729 95.1451 33.4349 95.145 31.9303C95.1449 30.413 94.2977 29.2752 92.8817 29.2753C92.0977 29.2753 91.4277 29.7432 91.1116 30.3754L91.1118 33.4731Z" fill="white"/>
<path d="M101.542 36.6333L98.8994 36.6335L98.8984 22.9151L101.541 22.9149L101.541 27.985C101.959 27.4793 102.894 26.9987 103.906 26.9987C106.649 26.9985 108.192 29.2363 108.192 31.9421C108.192 34.6478 106.65 36.8606 103.906 36.8607C102.895 36.8608 101.959 36.3804 101.542 35.8747L101.542 36.6333ZM101.542 33.4724C101.833 34.1298 102.528 34.5723 103.312 34.5723C104.728 34.5722 105.575 33.4342 105.575 31.9296C105.575 30.4124 104.728 29.2745 103.312 29.2746C102.553 29.2746 101.832 29.7425 101.541 30.3747L101.542 33.4724Z" fill="white"/>
<path d="M113.757 36.8727C111.013 36.8729 109.129 34.8501 109.129 31.9547C109.129 29.0466 111.013 27.0109 113.756 27.0107C116.5 27.0105 118.372 29.0334 118.372 31.954C118.372 34.8494 116.488 36.8726 113.757 36.8727ZM113.757 29.236C112.442 29.2361 111.734 30.374 111.734 31.9545C111.734 33.5097 112.455 34.6602 113.757 34.6601C115.059 34.66 115.78 33.522 115.78 31.9542C115.78 30.3738 115.059 29.2359 113.757 29.236Z" fill="white"/>
<path d="M124.25 31.764L127.689 36.6442L124.794 36.6444L122.771 33.6859L120.723 36.6447L117.979 36.6449L121.38 31.8274L118.181 27.2127L121.076 27.2125L122.897 29.8928L124.743 27.2123L127.487 27.2121L124.25 31.764Z" fill="white"/>
<path d="M39.9399 19.2398L33.1253 23.6276L37.8416 27.433L44.6942 23.1969L39.9399 19.2398Z" fill="white"/>
<path d="M33.1272 31.1506L39.9424 35.626L44.6962 31.6682L37.843 27.433L33.1272 31.1506Z" fill="white"/>
<path d="M44.6956 31.6682L49.4499 35.6253L56.2392 31.1996L51.5355 27.4321L44.6956 31.6682Z" fill="white"/>
<path d="M56.2393 23.664L49.4493 19.2391L44.6956 23.1969L51.5361 27.4321L56.2393 23.664Z" fill="white"/>
<path d="M44.7075 32.5153L39.9411 36.4731L37.8928 35.1456L37.8929 36.6376L44.7081 40.721L51.5101 36.6367L51.51 35.1447L49.4745 36.4724L44.7075 32.5153Z" fill="white"/>
</g>
<defs>
<clipPath id="clip0_1_3788">
<rect width="94.8276" height="22" fill="white" transform="translate(33 19)"/>
</clipPath>
</defs>
</svg>
