<svg width="160" height="60" viewBox="0 0 160 60" fill="none" xmlns="http://www.w3.org/2000/svg">
<rect x="0.5" y="0.5" width="159" height="59" rx="5.5" stroke="#1B1B1B"/>
<g opacity="0.3" clip-path="url(#clip0_1_3818)">
<path d="M67.0091 30.6153C67.0117 29.4788 66.6629 28.3693 66.0102 27.4388C65.3577 26.5083 64.4333 25.8023 63.3639 25.4176C63.4612 24.9216 63.5102 24.4173 63.5103 23.9118C63.5112 22.2386 62.9813 20.6083 61.9972 19.2551C61.013 17.902 59.6252 16.8958 58.033 16.3812C56.4411 15.8666 54.7267 15.8702 53.1368 16.3913C51.5468 16.9124 50.163 17.9242 49.1844 19.2814C48.4623 18.7219 47.5776 18.4129 46.6642 18.4014C45.7507 18.3898 44.8584 18.6763 44.1224 19.2173C43.3864 19.7584 42.8468 20.5246 42.5852 21.3998C42.3237 22.2751 42.3546 23.2117 42.6731 24.0678C41.6012 24.4586 40.6747 25.1683 40.0182 26.1014C39.3617 27.0345 39.0067 28.1463 39.0009 29.2872C38.998 30.4276 39.3487 31.5409 40.0047 32.4737C40.6608 33.4066 41.5898 34.1132 42.664 34.4962C42.569 34.9921 42.5205 35.4956 42.5193 36.0004C42.5178 37.6716 43.0471 39.3001 44.0309 40.6512C45.0146 42.0022 46.4021 43.0058 47.9931 43.5175C49.5841 44.0291 51.2964 44.0223 52.8833 43.4978C54.4701 42.9736 55.8494 41.9588 56.8223 40.5999C57.5424 41.1608 58.4256 41.4715 59.3382 41.4852C60.2508 41.4988 61.1429 41.2143 61.8791 40.6751C62.6156 40.1357 63.156 39.3711 63.4183 38.497C63.6808 37.6228 63.6512 36.6871 63.3337 35.8313C64.4061 35.4412 65.3333 34.7317 65.9901 33.7985C66.6471 32.8654 67.002 31.7532 67.0075 30.612" fill="white"/>
<path d="M50.0117 28.0148L56.141 30.8128L62.3266 25.3947C62.4156 24.9477 62.4599 24.4928 62.4584 24.037C62.458 22.5613 61.9853 21.1245 61.1094 19.9368C60.2337 18.7491 59.0008 17.8728 57.591 17.4363C56.1814 16.9997 54.6691 17.0258 53.2753 17.5107C51.8815 17.9955 50.6795 18.9137 49.8451 20.1309L48.815 25.4607L50.0117 28.0148Z" fill="black"/>
<path d="M43.6687 34.5057C43.5784 34.9597 43.5331 35.4216 43.5337 35.8845C43.5338 37.3664 44.0089 38.8092 44.8893 40.0011C45.7697 41.1932 47.009 42.0715 48.4253 42.5073C49.8415 42.9432 51.3603 42.9136 52.7585 42.4229C54.1568 41.9323 55.3609 41.0063 56.1941 39.7809L57.2145 34.4625L55.8517 31.8579L49.6997 29.0551L43.6687 34.5057Z" fill="black"/>
<path d="M43.6305 23.8999L47.8306 24.891L48.75 20.1147C48.1787 19.6816 47.4825 19.4451 46.7656 19.4408C46.0487 19.4365 45.3497 19.6645 44.7732 20.0907C44.1968 20.517 43.7739 21.1184 43.5679 21.8051C43.3619 22.4918 43.3838 23.2268 43.6305 23.8999Z" fill="black"/>
<path d="M43.2666 24.8994C42.345 25.2105 41.5434 25.8009 40.973 26.5887C40.4027 27.3765 40.092 28.3225 40.0843 29.295C40.0837 30.2349 40.3692 31.1528 40.9028 31.9265C41.4365 32.7003 42.193 33.2933 43.0718 33.6267L48.9645 28.2998L47.8817 25.9882L43.2666 24.8994Z" fill="black"/>
<path d="M57.2718 39.7808C57.8423 40.2117 58.5367 40.4467 59.2515 40.4504C59.9664 40.4541 60.6633 40.2267 61.238 39.8017C61.813 39.3768 62.2349 38.7772 62.4411 38.0927C62.6472 37.4083 62.6263 36.6754 62.3815 36.0037L58.1847 35.0273L57.2718 39.7808Z" fill="black"/>
<path d="M58.1248 33.9219L62.7448 35.0009C63.6669 34.6907 64.4691 34.1006 65.0396 33.3125C65.6101 32.5245 65.9203 31.5782 65.9271 30.6054C65.9262 29.6674 65.6401 28.7519 65.1069 27.9803C64.5736 27.2087 63.8184 26.6175 62.9412 26.2851L56.8988 31.5762L58.1248 33.9219Z" fill="black"/>
<path d="M78.1617 35.5973L78.7217 35.5403L78.7609 36.6798C77.5147 36.8681 76.2573 36.9716 74.9972 36.9894C73.6081 36.9895 72.6236 36.5875 72.0441 35.7833C71.4645 34.9792 71.1751 33.7278 71.1761 32.0294C71.1759 28.6466 72.5204 26.9546 75.2097 26.9533C76.5121 26.9533 77.4835 27.3168 78.1238 28.0438C78.7642 28.7709 79.0855 29.9105 79.0877 31.4624L79.0113 32.5629L72.6429 32.5633C72.643 33.6312 72.8363 34.4223 73.2226 34.9367C73.6091 35.4511 74.2808 35.7083 75.238 35.7082C76.1975 35.7114 77.172 35.6744 78.1617 35.5973ZM77.6405 31.4104C77.6404 30.2264 77.451 29.3902 77.0722 28.9018C76.6933 28.4135 76.0759 28.1688 75.2196 28.1678C74.3633 28.1678 73.7198 28.4251 73.2889 28.9395C72.8582 29.454 72.6362 30.2777 72.6233 31.4107L77.6405 31.4104Z" fill="white"/>
<path d="M81.1063 36.9125L81.1055 24.2148L82.5527 24.2147L82.5535 36.9124L81.1063 36.9125Z" fill="white"/>
<path d="M91.6683 30.0583L91.6686 34.9257C91.6686 35.4141 92.87 35.388 92.87 35.388L92.7968 36.6675C91.7794 36.6676 90.9378 36.7523 90.4331 36.2623C89.3403 36.7478 88.1565 36.9949 86.9608 36.987C86.0741 36.987 85.3985 36.7359 84.934 36.2334C84.4695 35.7309 84.2377 35.0088 84.2388 34.0667C84.2387 33.1269 84.4768 32.435 84.9533 31.9911C85.4297 31.5472 86.1758 31.2758 87.1916 31.177L90.2211 30.8886L90.2211 30.0584C90.221 29.4072 90.0798 28.9373 89.7977 28.6486C89.643 28.5035 89.4607 28.3912 89.2614 28.3185C89.0622 28.2458 88.8504 28.2141 88.6386 28.2255L84.8358 28.2257L84.8357 26.9511L88.5425 26.9508C89.6364 26.9507 90.4309 27.2019 90.9258 27.7044C91.4207 28.2068 91.6682 28.9915 91.6683 30.0583ZM85.7218 33.995C85.7219 35.1789 86.2103 35.771 87.187 35.7709C88.0682 35.7699 88.9429 35.6196 89.7737 35.3263L90.2165 35.1716L90.2163 31.9875L87.3658 32.2579C86.7863 32.31 86.368 32.4772 86.1108 32.7594C85.8536 33.0415 85.7239 33.4534 85.7218 33.995Z" fill="white"/>
<path d="M97.3188 28.2444C95.9155 28.2445 95.2139 28.7329 95.214 29.7097C95.214 30.1612 95.3768 30.4797 95.7024 30.6652C96.028 30.8508 96.7612 31.0439 97.9018 31.2446C99.0478 31.4453 99.8585 31.7253 100.334 32.0845C100.809 32.4437 101.048 33.1186 101.049 34.1095C101.049 35.1014 100.73 35.8286 100.093 36.291C99.4563 36.7534 98.5268 36.9851 97.3047 36.9863C96.507 36.9863 93.8438 36.6902 93.8438 36.6902L93.9218 35.4367C95.4521 35.5832 96.5574 35.6922 97.3046 35.6921C98.0518 35.6921 98.62 35.5732 99.0123 35.3355C99.4046 35.0978 99.5999 34.6989 99.5999 34.1389C99.5998 33.5789 99.437 33.1996 99.0984 32.9994C98.7598 32.7992 98.0305 32.6104 96.8991 32.4298C95.7677 32.2492 94.9618 31.9855 94.4864 31.6388C94.0111 31.2921 93.7717 30.6475 93.7717 29.7082C93.7716 28.7689 94.0971 28.0802 94.7662 27.6244C95.4352 27.1685 96.2557 26.9487 97.2454 26.9486C98.0301 26.9486 100.754 27.1486 100.754 27.1486L100.754 28.4102C99.3162 28.3469 98.1409 28.2444 97.3188 28.2444Z" fill="white"/>
<path d="M108.025 28.3967L104.956 28.3969L104.957 33.0104C104.957 34.1162 105.037 34.8429 105.198 35.1902C105.36 35.5385 105.741 35.7111 106.345 35.711L108.063 35.5953L108.16 36.7918C107.51 36.9122 106.852 36.9833 106.191 37.0052C105.188 37.0053 104.493 36.7606 104.107 36.2712C103.721 35.7817 103.528 34.8489 103.529 33.4728L103.529 28.397L102.164 28.3971L102.164 27.1436L103.535 27.1435L103.535 24.1905L104.962 24.1904L104.963 27.1434L108.025 27.1432L108.025 28.3967Z" fill="white"/>
<path d="M110.035 25.9108L110.035 24.2308L111.482 24.2307L111.482 25.9107L110.035 25.9108ZM110.036 36.9105L110.035 27.1431L111.483 27.143L111.483 36.9104L110.036 36.9105Z" fill="white"/>
<path d="M117.751 26.9489C118.474 26.9797 119.194 27.0574 119.907 27.1815L120.369 27.2385L120.312 28.4155C119.556 28.3197 118.795 28.2621 118.033 28.2431C116.939 28.2431 116.196 28.5036 115.805 29.0246C115.413 29.5456 115.216 30.5104 115.215 31.9191C115.216 33.33 115.399 34.3109 115.766 34.8623C116.133 35.4136 116.898 35.6903 118.061 35.6924L120.34 35.5196L120.399 36.7162C119.512 36.8665 118.616 36.9569 117.716 36.9866C116.212 36.9867 115.173 36.6004 114.6 35.8277C114.027 35.055 113.741 33.7527 113.741 31.9208C113.74 30.0878 114.049 28.8012 114.667 28.061C115.284 27.3208 116.312 26.9501 117.751 26.9489Z" fill="white"/>
</g>
<defs>
<clipPath id="clip0_1_3818">
<rect width="81.3953" height="28" fill="white" transform="translate(39 16)"/>
</clipPath>
</defs>
</svg>
