<svg width="160" height="60" viewBox="0 0 160 60" fill="none" xmlns="http://www.w3.org/2000/svg">
<rect x="0.5" y="0.5" width="159" height="59" rx="5.5" stroke="#1B1B1B"/>
<g opacity="0.3">
<path d="M42.1296 26.8305L43.5226 26.8304C44.3933 26.8304 45.2988 27.0044 45.2988 28.0144C45.2989 28.885 44.7417 29.5119 43.1049 29.512L41.5726 29.5121L42.1296 26.8305ZM36.0009 36.6867L40.0407 36.6864L40.8763 32.6813L43.6275 32.6812C47.1101 32.6809 49.3736 30.3823 49.3735 27.7007C49.3733 24.7753 47.806 23.4172 45.3682 23.4173L38.7861 23.4178L36.0009 36.6867Z" fill="white"/>
<path d="M54.353 27.9789L54.8408 31.949L52.2985 31.9492L54.353 27.9789ZM45.6122 36.686L49.7913 36.6857L50.8012 34.805L55.1196 34.8048L55.3287 36.6853L59.3337 36.6851L57.3129 23.4165L53.273 23.4168L45.6122 36.686Z" fill="white"/>
<path d="M61.0399 31.8093L58.1836 23.4164L62.2931 23.4162L63.5471 28.3614L66.7856 23.4159L71.5916 23.4155L65.1145 31.7742L64.1049 36.6847L60.0303 36.685L61.0399 31.8093Z" fill="white"/>
<path d="M81.3446 31.6338C81.1009 32.992 80.0564 36.9971 74.519 36.9974C70.6534 36.9977 68.8074 34.4904 68.8072 30.9381C68.8069 26.6545 71.4882 23.0673 76.0156 23.067C78.9758 23.0668 81.6227 24.3551 81.6926 28.3253L77.8269 28.3256C77.8617 27.0718 77.2696 26.3753 76.0158 26.3754C73.7522 26.3756 72.9165 28.9876 72.9166 30.8682C72.9167 31.9826 73.1954 33.6542 75.076 33.6541C76.3646 33.654 77.0959 32.7833 77.3396 31.5992L81.3446 31.6338Z" fill="white"/>
<path d="M83.7122 23.4147L87.8217 23.4145L86.8468 28.0115L90.5732 28.0113L91.548 23.4142L95.6575 23.4139L92.8723 36.6828L88.7977 36.6831L89.8769 31.4243L86.1505 31.4245L85.0365 36.6833L80.9618 36.6836L83.7122 23.4147Z" fill="white"/>
<path d="M96.7353 23.4139L107.705 23.4131L107.009 26.8261L100.114 26.8266L99.7655 28.4634L106.173 28.463L105.512 31.6322L99.104 31.6326L98.7559 33.2695L105.791 33.269L105.094 36.682L93.9501 36.6828L96.7353 23.4139Z" fill="white"/>
<path d="M110.529 29.6468L107.463 23.4131L111.921 23.4128L113.21 26.8605L115.856 23.4125L120.697 23.4122L115.16 29.6464L118.4 36.6811L113.803 36.6814L112.34 32.9899L109.24 36.6817L104.226 36.682L110.529 29.6468Z" fill="white"/>
<path d="M121.219 24.0043C121.219 23.5167 121.567 23.1336 122.055 23.1336C122.508 23.1335 122.891 23.5166 122.891 24.0042C122.891 24.4917 122.543 24.8748 122.055 24.8749C121.602 24.8749 121.219 24.4918 121.219 24.0043ZM121.045 24.0043C121.045 24.5963 121.498 25.0142 122.055 25.0142C122.612 25.0141 123.065 24.5962 123.065 24.0041C123.065 23.4469 122.612 22.9942 122.055 22.9943C121.498 22.9943 121.045 23.4471 121.045 24.0043ZM121.672 24.5963L121.846 24.5963L121.846 24.1087L122.02 24.1087L122.334 24.6311L122.543 24.631L122.194 24.1087C122.368 24.1087 122.508 24.0042 122.508 23.7952C122.508 23.5514 122.368 23.447 122.09 23.447L121.672 23.447L121.672 24.5963ZM121.846 23.5863L122.09 23.5863C122.229 23.5863 122.334 23.6211 122.334 23.7604C122.334 23.9345 122.194 23.9694 122.02 23.9694L121.846 23.9694L121.846 23.5863Z" fill="white"/>
</g>
</svg>
