<svg width="160" height="60" viewBox="0 0 160 60" fill="none" xmlns="http://www.w3.org/2000/svg">
<rect x="0.5" y="0.5" width="159" height="59" rx="5.5" stroke="#1B1B1B"/>
<g opacity="0.3">
<path fill-rule="evenodd" clip-rule="evenodd" d="M110.082 29.9132C110.082 25.6408 108.012 22.2698 104.057 22.2701C100.085 22.2703 97.6819 25.6417 97.6822 29.8807C97.6825 34.904 100.52 37.4405 104.592 37.4403C106.578 37.4401 108.08 36.9894 109.215 36.3552L109.214 33.0174C108.08 33.5849 106.778 33.9354 105.126 33.9356C103.507 33.9357 102.072 33.3683 101.888 31.3991L110.049 31.3985C110.049 31.1816 110.082 30.3137 110.082 29.9132ZM101.838 28.3283C101.837 26.4425 102.989 25.658 104.04 25.6579C105.058 25.6579 106.143 26.4422 106.143 28.328L101.838 28.3283Z" fill="white"/>
<path fill-rule="evenodd" clip-rule="evenodd" d="M91.2396 22.2709C89.6041 22.271 88.5528 23.0388 87.9687 23.5728L87.7517 22.5381L84.0801 22.5384L84.0814 41.9977L88.2536 41.1129L88.2699 36.3899C88.8708 36.8238 89.7553 37.4412 91.224 37.4411C94.2113 37.4409 96.9314 35.0375 96.931 29.7471C96.914 24.9073 94.1602 22.2707 91.2396 22.2709ZM90.2391 33.7696C89.2544 33.7697 88.6703 33.4193 88.2697 32.9854L88.2526 26.7938C88.6865 26.3098 89.2873 25.976 90.2385 25.9759C91.7572 25.9758 92.8087 27.678 92.8089 29.8642C92.809 32.1005 91.7744 33.7695 90.2391 33.7696Z" fill="white"/>
<path fill-rule="evenodd" clip-rule="evenodd" d="M78.3382 21.2872L82.527 20.3857L82.5268 16.9978L78.3379 17.8826L78.3382 21.2872Z" fill="white"/>
<path d="M82.5268 22.5553L78.3379 22.5555L78.3389 37.1583L82.5278 37.1581L82.5268 22.5553Z" fill="white"/>
<path fill-rule="evenodd" clip-rule="evenodd" d="M73.8485 23.7908L73.5814 22.5558L69.9766 22.5561L69.9776 37.1589L74.1498 37.1586L74.1491 27.262C75.1337 25.9769 76.8026 26.2105 77.32 26.394L77.3197 22.5556C76.7856 22.3553 74.833 21.9883 73.8485 23.7908Z" fill="white"/>
<path fill-rule="evenodd" clip-rule="evenodd" d="M65.5048 18.9348L61.4328 19.8029L61.417 33.1708C61.4171 35.6407 63.2697 37.4597 65.7397 37.4595C67.1082 37.4594 68.1095 37.209 68.6602 36.9086L68.66 33.5207C68.126 33.7377 65.4892 34.5056 65.489 32.0356L65.4886 26.1111L68.6595 26.1109L68.6592 22.5561L65.4884 22.5563L65.5048 18.9348Z" fill="white"/>
<path fill-rule="evenodd" clip-rule="evenodd" d="M54.2226 26.7961C54.2226 26.1452 54.7566 25.8949 55.6411 25.8948C56.9095 25.8947 58.5116 26.2785 59.78 26.9626L59.7798 23.0407C58.3945 22.4901 57.026 22.2732 55.6409 22.2733C52.253 22.2735 50.0001 24.0427 50.0003 26.9966C50.0006 31.6028 56.3424 30.868 56.3425 32.854C56.3426 33.6217 55.675 33.8721 54.7404 33.8722C53.3553 33.8723 51.5862 33.305 50.1843 32.5374L50.1845 36.5093C51.7366 37.1768 53.3054 37.4604 54.7407 37.4603C58.212 37.46 60.5984 35.7409 60.5982 32.7536C60.5811 27.7803 54.2227 28.6653 54.2226 26.7961Z" fill="white"/>
</g>
</svg>
